<svg width="500" height="250" viewBox="0 0 500 250" fill="none" xmlns="http://www.w3.org/2000/svg">
<path d="M0 0H500V250H0V0Z" fill="#7AE2CF"/>
<path d="M112.222 103.16C112.42 103.101 112.621 103.042 112.822 102.981C118.54 101.254 125.292 99.0654 130.246 97.0352C135.309 94.9606 141.787 91.7013 147.183 88.8477C149.84 87.442 152.164 86.1732 153.82 85.2568C154.648 84.7992 155.306 84.43 155.755 84.1777C155.979 84.0517 156.151 83.955 156.265 83.8906C156.321 83.8585 156.364 83.8348 156.392 83.8193C156.405 83.8116 156.415 83.8052 156.421 83.8018C156.424 83.8001 156.427 83.7994 156.428 83.7988V83.7979L166.176 100.921H166.175C166.174 100.921 166.172 100.922 166.171 100.923C166.168 100.925 166.164 100.927 166.159 100.93C166.149 100.935 166.136 100.943 166.118 100.953C166.083 100.973 166.033 101.002 165.969 101.038C165.839 101.112 165.65 101.218 165.408 101.354C164.925 101.625 164.227 102.016 163.357 102.497C161.619 103.459 159.185 104.788 156.395 106.264C150.895 109.173 143.713 112.809 137.717 115.267C133.514 116.989 128.474 118.71 123.811 120.197C128.803 125.691 134.656 132.591 138.722 138.916C143.176 145.846 147.385 155.038 150.372 162.125C151.897 165.743 153.163 168.957 154.05 171.27C154.494 172.427 154.844 173.364 155.085 174.017C155.206 174.343 155.3 174.599 155.364 174.776C155.397 174.865 155.422 174.935 155.439 174.983C155.448 175.008 155.455 175.027 155.46 175.041C155.462 175.048 155.464 175.053 155.466 175.058C155.467 175.06 155.467 175.062 155.468 175.063L155.469 175.065C155.469 175.066 155.469 175.067 146.197 178.394C136.925 181.72 136.925 181.721 136.925 181.722C136.924 181.721 136.923 181.718 136.922 181.715C136.919 181.708 136.915 181.696 136.909 181.679C136.897 181.644 136.877 181.589 136.851 181.516C136.797 181.368 136.714 181.143 136.605 180.85C136.388 180.262 136.066 179.399 135.652 178.321C134.824 176.161 133.639 173.154 132.217 169.778C129.309 162.879 125.637 154.995 122.148 149.569C121.448 148.481 120.661 147.346 119.811 146.182C119.466 151.849 118.415 157.895 117.46 162.56C116.848 165.547 116.235 168.16 115.773 170.03C115.542 170.967 115.348 171.724 115.209 172.253C115.14 172.517 115.084 172.726 115.045 172.872C115.025 172.945 115.01 173.002 114.999 173.044C114.993 173.065 114.989 173.082 114.985 173.095C114.984 173.101 114.982 173.106 114.98 173.11C114.98 173.112 114.98 173.115 114.979 173.116L114.979 173.118C114.97 173.117 114.698 173.043 105.479 170.513C95.9785 167.906 95.9777 167.907 95.9775 167.907L95.9785 167.906C95.9796 167.902 95.9812 167.894 95.9844 167.883C95.9908 167.859 96.002 167.819 96.0166 167.765C96.0459 167.656 96.0909 167.486 96.1494 167.263C96.2667 166.815 96.438 166.15 96.6445 165.312C97.0587 163.633 97.6101 161.281 98.1582 158.605C99.294 153.061 100.259 146.846 100.225 142.349C100.191 138.054 99.2224 132.127 98.1074 126.843C97.5694 124.293 97.0315 122.052 96.6299 120.452C96.4296 119.654 96.2647 119.02 96.1514 118.594C96.0948 118.381 96.0507 118.219 96.0225 118.115C96.0084 118.063 95.9984 118.025 95.9922 118.003L83.5332 74.7256L102.467 69.2744L112.222 103.16Z" fill="#077A7D"/>
<path d="M225.155 91.378C226.458 91.1078 229.203 90.7848 232.136 92.3009C235.462 94.0205 236.934 96.9805 237.434 99.1739C237.874 101.103 237.675 102.738 237.535 103.57C237.245 105.3 236.608 106.847 236.163 107.835C234.33 111.91 230.443 117.824 226.282 123.473C223.092 127.803 219.41 132.419 215.725 136.574C215.687 136.718 215.648 136.861 215.612 137.005C212.515 149.215 214.427 157.342 218.546 160.809C219.108 161.281 219.195 161.174 219.286 161.163C219.783 161.104 220.842 160.759 222.399 159.678C223.88 158.649 225.264 157.334 226.332 156.182C226.848 155.626 227.248 155.153 227.504 154.839C227.631 154.683 227.721 154.569 227.769 154.507L227.804 154.461L227.789 154.481C227.788 154.482 227.786 154.485 227.785 154.485C227.784 154.488 227.843 154.535 235.704 160.347C243.626 166.203 243.623 166.205 243.621 166.208C243.621 166.209 243.619 166.212 243.618 166.214C243.615 166.218 243.611 166.222 243.608 166.227C243.601 166.236 243.594 166.246 243.585 166.257C243.569 166.279 243.549 166.306 243.526 166.336C243.48 166.397 243.42 166.474 243.349 166.567C243.206 166.751 243.014 166.996 242.774 167.29C242.296 167.876 241.621 168.671 240.781 169.577C239.137 171.35 236.68 173.746 233.641 175.858C230.678 177.916 226.539 180.142 221.613 180.728C216.282 181.361 210.72 179.973 205.862 175.885C198.282 169.507 195.163 160.714 194.532 151.761C194.5 151.763 194.468 151.767 194.437 151.77C191.828 151.954 188.864 151.266 186.386 149.162C184.148 147.262 183.176 144.939 182.735 143.415C181.914 140.58 182.131 137.69 182.34 135.908C182.808 131.919 184.123 127.108 185.428 122.928C186.782 118.591 188.33 114.294 189.524 111.118C190.124 109.521 190.644 108.187 191.014 107.246C191.199 106.776 191.348 106.403 191.451 106.145C191.503 106.015 191.544 105.913 191.573 105.843C191.587 105.808 191.599 105.781 191.607 105.761C191.611 105.751 191.613 105.742 191.616 105.736C191.617 105.734 191.619 105.732 191.619 105.73C191.62 105.729 191.62 105.727 191.62 105.727C191.63 105.73 191.917 105.845 200.743 109.442C202.475 110.148 203.878 110.72 205.015 111.183C208.737 104.687 213.213 99.0237 218.05 95.1544C219.173 94.2558 220.507 93.2785 221.926 92.546C222.623 92.1865 223.748 91.6698 225.155 91.378Z" fill="#077A7D"/>
<path d="M303.155 90.378C304.458 90.1078 307.203 89.7848 310.136 91.3009C313.462 93.0205 314.934 95.9805 315.434 98.1739C315.874 100.103 315.675 101.738 315.535 102.57C315.245 104.3 314.608 105.847 314.163 106.835C312.33 110.91 308.443 116.824 304.282 122.473C301.092 126.803 297.41 131.419 293.725 135.574C293.687 135.718 293.648 135.861 293.612 136.005C290.515 148.215 292.427 156.342 296.546 159.809C297.108 160.281 297.195 160.174 297.286 160.163C297.783 160.104 298.842 159.759 300.399 158.678C301.88 157.649 303.264 156.334 304.332 155.182C304.848 154.626 305.248 154.153 305.504 153.839C305.631 153.683 305.721 153.569 305.769 153.507L305.804 153.461L305.789 153.481C305.788 153.482 305.786 153.485 305.785 153.485C305.784 153.488 305.843 153.535 313.704 159.347C321.626 165.203 321.623 165.205 321.621 165.208C321.621 165.209 321.619 165.212 321.618 165.214C321.615 165.218 321.611 165.222 321.608 165.227C321.601 165.236 321.594 165.246 321.585 165.257C321.569 165.279 321.549 165.306 321.526 165.336C321.48 165.397 321.42 165.474 321.349 165.567C321.206 165.751 321.014 165.996 320.774 166.29C320.296 166.876 319.621 167.671 318.781 168.577C317.137 170.35 314.68 172.746 311.641 174.858C308.678 176.916 304.539 179.142 299.613 179.728C294.282 180.361 288.72 178.973 283.862 174.885C276.282 168.507 273.163 159.714 272.532 150.761C272.5 150.763 272.468 150.767 272.437 150.77C269.828 150.954 266.864 150.266 264.386 148.162C262.148 146.262 261.176 143.939 260.735 142.415C259.914 139.58 260.131 136.69 260.34 134.908C260.808 130.919 262.123 126.108 263.428 121.928C264.782 117.591 266.33 113.294 267.524 110.118C268.124 108.521 268.644 107.187 269.014 106.246C269.199 105.776 269.348 105.403 269.451 105.145C269.503 105.015 269.544 104.913 269.573 104.843C269.587 104.808 269.599 104.781 269.607 104.761C269.611 104.751 269.613 104.742 269.616 104.736C269.617 104.734 269.619 104.732 269.619 104.73C269.62 104.729 269.62 104.727 269.62 104.727C269.63 104.73 269.917 104.845 278.743 108.442C280.475 109.148 281.878 109.72 283.015 110.183C286.737 103.687 291.213 98.0237 296.05 94.1544C297.173 93.2558 298.507 92.2785 299.926 91.546C300.623 91.1865 301.748 90.6698 303.155 90.378Z" fill="#077A7D"/>
<path d="M398.006 110.376L384.519 114.727C389.573 120.271 395.577 127.317 399.722 133.765C408.159 146.889 412.113 155.457 416.627 170.393L397.767 176.093C393.782 162.907 390.597 156.006 383.148 144.419C382.425 143.293 381.608 142.119 380.724 140.913C379.994 147.717 377.379 155.047 374.253 161.295C370.523 168.748 365.126 176.544 358.845 181.173L347.155 165.312C349.869 163.313 353.553 158.635 356.634 152.478C359.715 146.321 361.251 140.568 361.225 137.197C361.191 132.903 360.222 126.976 359.107 121.691C358.569 119.141 358.032 116.901 357.63 115.301C357.43 114.503 357.265 113.869 357.151 113.442C357.095 113.23 357.051 113.069 357.022 112.965C357.008 112.913 356.998 112.875 356.992 112.853C356.989 112.842 356.987 112.834 356.986 112.83L356.985 112.828L354.457 103.722L391.957 91.624L398.006 110.376Z" fill="#077A7D"/>
<path d="M112 81.5C112 76.2533 116.253 72 121.5 72V72C126.747 72 131 76.2533 131 81.5V81.5C131 86.7467 126.747 91 121.5 91V91C116.253 91 112 86.7467 112 81.5V81.5Z" fill="#077A7D"/>
<path d="M350 81.5C350 76.2533 354.253 72 359.5 72V72C364.747 72 369 76.2533 369 81.5V81.5C369 86.7467 364.747 91 359.5 91V91C354.253 91 350 86.7467 350 81.5V81.5Z" fill="#077A7D"/>
</svg>
