<svg width="334" height="113" viewBox="0 0 334 113" fill="none" xmlns="http://www.w3.org/2000/svg">
<path d="M29.2217 34.1602C29.4199 34.1006 29.6206 34.0424 29.8223 33.9814C35.5398 32.2539 42.2918 30.0654 47.2461 28.0352C52.3086 25.9606 58.7873 22.7013 64.1826 19.8477C66.8403 18.442 69.1638 17.1732 70.8203 16.2568C71.6476 15.7992 72.3061 15.43 72.7549 15.1777C72.9791 15.0517 73.1508 14.955 73.2646 14.8906C73.3214 14.8585 73.3643 14.8348 73.3916 14.8193C73.4052 14.8116 73.4149 14.8052 73.4209 14.8018C73.4239 14.8001 73.4267 14.7994 73.4277 14.7988V14.7979L83.1758 31.9209H83.1748C83.1739 31.9214 83.1723 31.922 83.1709 31.9229C83.168 31.9245 83.164 31.9269 83.1592 31.9297C83.1495 31.9352 83.1356 31.9433 83.1182 31.9531C83.0833 31.9729 83.0333 32.0015 82.9688 32.0381C82.839 32.1115 82.6501 32.2176 82.4082 32.3535C81.9246 32.6253 81.2272 33.016 80.3574 33.4971C78.6193 34.4586 76.1847 35.7879 73.3945 37.2637C67.8945 40.1727 60.7133 43.8092 54.7168 46.2666C50.5141 47.9888 45.4736 49.7102 40.8105 51.1973C45.803 56.6913 51.656 63.5915 55.7217 69.916C60.1763 76.8457 64.3851 86.0383 67.3721 93.125C68.897 96.7429 70.1635 99.9571 71.0498 102.27C71.4936 103.427 71.8436 104.364 72.085 105.017C72.2056 105.343 72.2996 105.599 72.3643 105.776C72.3966 105.865 72.4218 105.935 72.4395 105.983C72.4482 106.008 72.4549 106.027 72.46 106.041C72.4624 106.048 72.4643 106.053 72.4658 106.058C72.4666 106.06 72.4672 106.062 72.4678 106.063L72.4688 106.065C72.469 106.066 72.4695 106.067 63.1973 109.394C53.9247 112.72 53.9246 112.721 53.9248 112.722C53.9245 112.721 53.9231 112.718 53.9219 112.715C53.9193 112.708 53.9153 112.696 53.9092 112.679C53.8967 112.644 53.8774 112.589 53.8506 112.516C53.7968 112.368 53.7141 112.143 53.6055 111.85C53.3883 111.262 53.0655 110.399 52.6523 109.321C51.8244 107.161 50.6394 104.154 49.2168 100.778C46.3086 93.8786 42.6366 85.9955 39.1484 80.5693C38.4485 79.4805 37.6612 78.3459 36.8105 77.1816C36.4664 82.8493 35.4154 88.8954 34.46 93.5596C33.848 96.5472 33.2347 99.1602 32.7734 101.03C32.5423 101.967 32.3475 102.724 32.209 103.253C32.1397 103.517 32.0842 103.726 32.0449 103.872C32.0254 103.945 32.0103 104.002 31.999 104.044C31.9934 104.065 31.9888 104.082 31.9854 104.095C31.9837 104.101 31.9816 104.106 31.9805 104.11C31.9799 104.112 31.9799 104.115 31.9795 104.116L31.9785 104.118C31.9703 104.117 31.6982 104.043 22.4785 101.513C12.9785 98.9056 12.9777 98.9066 12.9775 98.9072L12.9785 98.9062C12.9796 98.9024 12.9812 98.8945 12.9844 98.8828C12.9908 98.8591 13.002 98.8192 13.0166 98.7646C13.0459 98.6555 13.0909 98.4864 13.1494 98.2627C13.2667 97.8148 13.438 97.1499 13.6445 96.3125C14.0587 94.6334 14.6101 92.281 15.1582 89.6055C16.294 84.0607 17.2593 77.846 17.2246 73.3486C17.1914 69.0542 16.2224 63.1273 15.1074 57.8428C14.5694 55.2929 14.0315 53.0519 13.6299 51.4521C13.4296 50.6542 13.2647 50.0204 13.1514 49.5938C13.0948 49.3806 13.0507 49.2192 13.0225 49.1152C13.0084 49.0635 12.9984 49.0255 12.9922 49.0029L0.533203 5.72559L19.4668 0.274414L29.2217 34.1602Z" fill="#077A7D"/>
<path d="M142.155 22.378C143.458 22.1078 146.203 21.7848 149.136 23.3009C152.462 25.0205 153.934 27.9805 154.434 30.1739C154.874 32.1026 154.675 33.7382 154.535 34.5704C154.245 36.2997 153.608 37.8472 153.163 38.8351C151.33 42.9099 147.443 48.8241 143.282 54.4728C140.092 58.8033 136.41 63.4195 132.725 67.5743C132.687 67.7178 132.648 67.8612 132.612 68.005C129.515 80.2145 131.427 88.3422 135.546 91.8087C136.108 92.2812 136.195 92.1742 136.286 92.1632C136.783 92.1042 137.842 91.7594 139.399 90.6778C140.88 89.649 142.264 88.3343 143.332 87.1817C143.848 86.6259 144.248 86.1535 144.504 85.839C144.631 85.6831 144.721 85.569 144.769 85.5069L144.804 85.461L144.789 85.4806C144.788 85.482 144.786 85.4847 144.785 85.4855C144.784 85.4882 144.843 85.5351 152.704 91.3468C160.626 97.2026 160.623 97.2054 160.621 97.2081C160.621 97.2092 160.619 97.2121 160.618 97.214C160.615 97.2179 160.611 97.2222 160.608 97.2267C160.601 97.2356 160.594 97.2459 160.585 97.2569C160.569 97.2792 160.549 97.3056 160.526 97.336C160.48 97.3971 160.42 97.4743 160.349 97.5665C160.206 97.7508 160.014 97.9961 159.774 98.2901C159.296 98.8764 158.621 99.6706 157.781 100.577C156.137 102.35 153.68 104.746 150.641 106.858C147.678 108.916 143.539 111.142 138.613 111.728C133.282 112.361 127.72 110.973 122.862 106.885C115.282 100.507 112.163 91.714 111.532 82.7608C111.5 82.7633 111.468 82.7674 111.437 82.7696C108.828 82.9537 105.864 82.2664 103.386 80.1622C101.148 78.2621 100.176 75.9388 99.7347 74.4151C98.9142 71.5799 99.1312 68.6901 99.3402 66.9083C99.8081 62.9186 101.123 58.1081 102.428 53.9278C103.782 49.5906 105.33 45.2938 106.524 42.1183C107.124 40.5211 107.644 39.1865 108.014 38.2462C108.199 37.7761 108.348 37.4034 108.451 37.1446C108.503 37.0152 108.544 36.9135 108.573 36.8429C108.587 36.8078 108.599 36.7806 108.607 36.7608C108.611 36.751 108.613 36.7424 108.616 36.7364C108.617 36.7336 108.619 36.7315 108.619 36.7296C108.62 36.7286 108.62 36.7272 108.62 36.7267C108.63 36.7295 108.917 36.8453 117.743 40.4425C119.475 41.1482 120.878 41.7195 122.015 42.1827C125.737 35.6869 130.213 30.0237 135.05 26.1544C136.173 25.2558 137.507 24.2785 138.926 23.546C139.623 23.1865 140.748 22.6698 142.155 22.378Z" fill="#077A7D"/>
<path d="M220.155 21.378C221.458 21.1078 224.203 20.7848 227.136 22.3009C230.462 24.0205 231.934 26.9805 232.434 29.1739C232.874 31.1026 232.675 32.7382 232.535 33.5704C232.245 35.2997 231.608 36.8472 231.163 37.8351C229.33 41.9099 225.443 47.8241 221.282 53.4728C218.092 57.8033 214.41 62.4195 210.725 66.5743C210.687 66.7178 210.648 66.8612 210.612 67.005C207.515 79.2145 209.427 87.3422 213.546 90.8087C214.108 91.2812 214.195 91.1742 214.286 91.1632C214.783 91.1042 215.842 90.7594 217.399 89.6778C218.88 88.649 220.264 87.3343 221.332 86.1817C221.848 85.6259 222.248 85.1535 222.504 84.839C222.631 84.6831 222.721 84.569 222.769 84.5069L222.804 84.461L222.789 84.4806C222.788 84.482 222.786 84.4847 222.785 84.4855C222.784 84.4882 222.843 84.5351 230.704 90.3468C238.626 96.2026 238.623 96.2054 238.621 96.2081C238.621 96.2092 238.619 96.2121 238.618 96.214C238.615 96.2179 238.611 96.2222 238.608 96.2267C238.601 96.2356 238.594 96.2459 238.585 96.2569C238.569 96.2792 238.549 96.3056 238.526 96.336C238.48 96.3971 238.42 96.4743 238.349 96.5665C238.206 96.7508 238.014 96.9961 237.774 97.2901C237.296 97.8764 236.621 98.6706 235.781 99.5773C234.137 101.35 231.68 103.746 228.641 105.858C225.678 107.916 221.539 110.142 216.613 110.728C211.282 111.361 205.72 109.973 200.862 105.885C193.282 99.5073 190.163 90.714 189.532 81.7608C189.5 81.7633 189.468 81.7674 189.437 81.7696C186.828 81.9537 183.864 81.2664 181.386 79.1622C179.148 77.2621 178.176 74.9388 177.735 73.4151C176.914 70.5799 177.131 67.6901 177.34 65.9083C177.808 61.9186 179.123 57.1081 180.428 52.9278C181.782 48.5906 183.33 44.2938 184.524 41.1183C185.124 39.5211 185.644 38.1865 186.014 37.2462C186.199 36.7761 186.348 36.4034 186.451 36.1446C186.503 36.0152 186.544 35.9135 186.573 35.8429C186.587 35.8078 186.599 35.7806 186.607 35.7608C186.611 35.751 186.613 35.7424 186.616 35.7364C186.617 35.7336 186.619 35.7315 186.619 35.7296C186.62 35.7286 186.62 35.7272 186.62 35.7267C186.63 35.7295 186.917 35.8453 195.743 39.4425C197.475 40.1482 198.878 40.7195 200.015 41.1827C203.737 34.6869 208.213 29.0237 213.05 25.1544C214.173 24.2558 215.507 23.2785 216.926 22.546C217.623 22.1865 218.748 21.6698 220.155 21.378Z" fill="#077A7D"/>
<path d="M315.006 41.376L301.519 45.7266C306.573 51.2711 312.577 58.3166 316.722 64.7646C325.159 77.8892 329.113 86.4573 333.627 101.393L314.767 107.093C310.782 93.907 307.597 87.006 300.148 75.4189C299.425 74.2934 298.608 73.1186 297.724 71.9131C296.994 78.7169 294.379 86.0473 291.253 92.2949C287.523 99.7478 282.126 107.544 275.845 112.173L264.155 96.3125C266.869 94.3128 270.553 89.6345 273.634 83.4775C276.715 77.3206 278.251 71.5677 278.225 68.1973C278.191 63.9028 277.222 57.9759 276.107 52.6914C275.569 50.1414 275.032 47.9005 274.63 46.3008C274.43 45.5029 274.265 44.869 274.151 44.4424C274.095 44.2295 274.051 44.0687 274.022 43.9648C274.008 43.9131 273.998 43.8752 273.992 43.8525C273.989 43.8416 273.987 43.8339 273.986 43.8301L273.985 43.8281L271.457 34.7217L308.957 22.624L315.006 41.376Z" fill="#077A7D"/>
<path d="M29 12.5C29 7.25329 33.2533 3 38.5 3V3C43.7467 3 48 7.25329 48 12.5V12.5C48 17.7467 43.7467 22 38.5 22V22C33.2533 22 29 17.7467 29 12.5V12.5Z" fill="#077A7D"/>
<path d="M267 12.5C267 7.25329 271.253 3 276.5 3V3C281.747 3 286 7.25329 286 12.5V12.5C286 17.7467 281.747 22 276.5 22V22C271.253 22 267 17.7467 267 12.5V12.5Z" fill="#077A7D"/>
</svg>
